<svg xmlns="http://www.w3.org/2000/svg" viewBox="0 0 35.32 96.06"><defs><style>.cls-1{fill:#fff;stroke:#000;}</style></defs><title>art</title><g id="Layer_2" data-name="Layer 2"><g id="Layer_1-2" data-name="Layer 1"><path class="cls-1" d="M34.82,13.05v8.73L.5,34.17V25.24l6.19-2v-12L.5,9.26V.71Zm-22,8.21,8.3-2.6c1.78-.57,4.85-1.34,4.85-1.34v-.1s-3.07-.81-4.85-1.39l-8.3-2.64Zm22,15.31V53c0,6.82-3.5,12-9.89,12a8.21,8.21,0,0,1-8.3-6h-.14c-1,3-2.88,4.51-6.29,5-4.52.72-8.84.24-9.27,1.44H.5V57.21c.53-.91,4.56-.77,8-1.3,3.17-.43,4.9-2.06,4.9-5.71V45.06H.5V36.57ZM19.65,51.45c0,3.36,1.59,5.09,4.18,5.09s4.27-1.64,4.27-4.9V45.06H19.65Zm8,25.53V67h7.2V95.56h-7.2V85.48H.5V77Z"/></g></g></svg>