<svg xmlns="http://www.w3.org/2000/svg" viewBox="0 0 355.61 71.77"><defs><style>.cls-1{fill:#fff;}.cls-2{fill:#231f20;}</style></defs><title>graham</title><g id="Layer_2" data-name="Layer 2"><g id="Layer_1-2" data-name="Layer 1"><rect class="cls-1" width="100.52" height="71.77"/><path class="cls-1" d="M116.74,29.11V27.64a9,9,0,0,0,2.56-.29,1.07,1.07,0,0,0,.54-.72A28,28,0,0,0,120,22V11.23c0-2.94,0-4.58-.05-4.92h-2.57c-1.29,0-2.43,0-3.41.12a1.55,1.55,0,0,0-.68.15,1.15,1.15,0,0,0-.22.62,16.87,16.87,0,0,0-.27,2.82h-1.49q-.07-3.67-.09-4.14,0-.8-.18-1.71l.16-.18c.57.06,1.16.1,1.8.13,1,0,3,0,5.94,0h7.26q4.52,0,6,0c.55,0,1.1-.07,1.67-.13l.18.18a17.45,17.45,0,0,0-.2,1.92c0,.1,0,1.41-.07,3.93h-1.49a22.45,22.45,0,0,0-.24-2.67,1.8,1.8,0,0,0-.23-.77,1.17,1.17,0,0,0-.58-.13c-1-.1-2.16-.14-3.53-.14h-2.57c0,.42,0,2.06,0,4.92V22a30.44,30.44,0,0,0,.19,4.67,1.11,1.11,0,0,0,.54.69,8.56,8.56,0,0,0,2.57.3v1.47q-3.48-.16-5.87-.16Q120.06,29,116.74,29.11Z"/><path class="cls-1" d="M156.33,27.69v1.42c-1.8-.05-3-.07-3.52-.07-.37,0-1.59,0-3.66.07l-.18-.18.25-3.75c0-.66.05-1.45.05-2.35V19.34a5.22,5.22,0,0,0-.82-3.38,2.92,2.92,0,0,0-2.34-1,3.4,3.4,0,0,0-1.94.56,3.5,3.5,0,0,0-1.25,1.51,4.07,4.07,0,0,0-.17,1.47v2.26q0,1.41.06,3.57c0,1.44.08,2.29.12,2.56a.87.87,0,0,0,.15.32.7.7,0,0,0,.25.18,2.89,2.89,0,0,0,.82.18l1.39.07v1.42L140.08,29l-4.45.13V27.69a15.66,15.66,0,0,0,1.87-.14.92.92,0,0,0,.42-.21.89.89,0,0,0,.2-.39,24.45,24.45,0,0,0,.18-3.41c0-1.9.06-3.59.06-5.08V12.64c0-1.92-.05-3.67-.15-5.24A5.39,5.39,0,0,0,138.05,6a.46.46,0,0,0-.2-.19,1.72,1.72,0,0,0-.66-.2c-.21,0-.73-.07-1.56-.11V4.15c1.68-.2,2.91-.39,3.67-.55s1.85-.48,3.27-.94l.4.22-.14,4.27q-.08,3.26-.08,6v1.73l3.16-2.62a7.07,7.07,0,0,1,2.61-.49,6.47,6.47,0,0,1,2.52.46,4.33,4.33,0,0,1,1.73,1.21,4.47,4.47,0,0,1,.89,1.64,8.32,8.32,0,0,1,.26,2.33c0,.32,0,1.26-.07,2.8,0,1.14,0,2.07,0,2.8a32.69,32.69,0,0,0,.12,3.9.75.75,0,0,0,.4.55A6.61,6.61,0,0,0,156.33,27.69Z"/><path class="cls-1" d="M173.92,26.34l-.79,1.76a11.57,11.57,0,0,1-3,1.33,10.23,10.23,0,0,1-2.66.31,10.59,10.59,0,0,1-3.13-.42A7.27,7.27,0,0,1,162,28.19a7.66,7.66,0,0,1-1.69-1.76,7.06,7.06,0,0,1-1.05-2.4,13.28,13.28,0,0,1-.32-3,13,13,0,0,1,.63-4.2,4.67,4.67,0,0,1,1-1.87,14.43,14.43,0,0,1,1.86-1.35,18.37,18.37,0,0,1,2.19-1.29,7.32,7.32,0,0,1,3-.56,7.13,7.13,0,0,1,3.95,1,5.57,5.57,0,0,1,2.18,2.57,10.1,10.1,0,0,1,.63,3.78c0,.34,0,.66,0,1a12.13,12.13,0,0,1-1.37.33,14.46,14.46,0,0,1-1.65.25c-.9.07-2.08.11-3.55.12l-2.44,0-.53,0H163.6a6.63,6.63,0,0,0,1.76,4.48,5.38,5.38,0,0,0,4,1.64,7.43,7.43,0,0,0,1.89-.22,12.31,12.31,0,0,0,2.26-.93Zm-4.27-7.43a6.72,6.72,0,0,0-.77-4,2.67,2.67,0,0,0-2.23-1.13A2.8,2.8,0,0,0,164.34,15a6.24,6.24,0,0,0-.87,3.95,26.43,26.43,0,0,0,3.54.16A17.75,17.75,0,0,0,169.65,18.91Z"/><path class="cls-1" d="M186.13,29.11V27.58a13.57,13.57,0,0,0,2.41-.28.68.68,0,0,0,.34-.26,1.51,1.51,0,0,0,.22-.68q.12-1,.21-4.47c0-1.11.05-3,.05-5.74,0-2.43,0-4.59-.05-6.46a17.31,17.31,0,0,0-.23-3.35.84.84,0,0,0-.23-.38,1.21,1.21,0,0,0-.58-.21,16.51,16.51,0,0,0-2.14-.23V4c2.47.07,4.17.11,5.1.11,1.23,0,2.47,0,3.72-.11l1.58,3.56,1.26,2.69L203.5,22q1.83-3.54,2.74-5.5l2.37-5c1.32-2.78,2.12-4.49,2.42-5.13S211.65,5,212,4c1.57.08,2.58.13,3,.13L220.39,4V5.52h-.25a3.75,3.75,0,0,0-2.3.42,2.29,2.29,0,0,0-.48,1.7c0,1,0,1.74,0,2.26l-.09,5v6.31c0,1.53,0,2.43,0,2.69.09,1.52.18,2.45.25,2.8a.73.73,0,0,0,.2.4.86.86,0,0,0,.41.24,20.56,20.56,0,0,0,2.26.2v1.53L214.66,29l-5.6.11V27.58a8.57,8.57,0,0,0,2.54-.26,1.22,1.22,0,0,0,.45-.85,37.36,37.36,0,0,0,.14-4.45V9L208,17.37l-2,4.18q-.79,1.65-2.23,4.79c-.59,1.27-1.05,2.3-1.38,3.07H201.2c-.43-1-1.06-2.38-1.87-4.12q-2.09-4.5-3.16-6.7L191.45,9v8.81q0,2.2.06,5.25c0,2,.09,3.18.13,3.45a1.22,1.22,0,0,0,.23.58,1.13,1.13,0,0,0,.54.31,13.49,13.49,0,0,0,2.2.23v1.53C193.27,29,191.9,29,190.5,29,188.66,29,187.21,29,186.13,29.11Z"/><path class="cls-1" d="M237.07,26.74l-.79,1.74a13.53,13.53,0,0,1-2.5,1,9.64,9.64,0,0,1-2.31.24,9,9,0,0,1-4.78-1.15,7.22,7.22,0,0,1-2.78-3.29,9.77,9.77,0,0,1-.68-4,11,11,0,0,1,.36-3.09,7.07,7.07,0,0,1,1-2.12,5.52,5.52,0,0,1,1.2-1.15l2.77-1.74a11,11,0,0,1,1.92-1.07,6.34,6.34,0,0,1,2.24-.33,12.11,12.11,0,0,1,2.15.19,8.6,8.6,0,0,1,1.84.57l.18.3-.45,2.93c0,.26-.1,1.09-.18,2.48h-1.4a17.86,17.86,0,0,0-.27-2.37,2.72,2.72,0,0,0-1.17-1,4.33,4.33,0,0,0-1.94-.39,4,4,0,0,0-2.17.51,2.88,2.88,0,0,0-1.18,1.68,9.62,9.62,0,0,0-.38,2.88,10.19,10.19,0,0,0,.77,4.05,5.84,5.84,0,0,0,2,2.62,5.58,5.58,0,0,0,3.12.83,6.3,6.3,0,0,0,1.59-.19,6.09,6.09,0,0,0,1.44-.54Z"/><path class="cls-1" d="M239.23,29.11V27.58a13.54,13.54,0,0,0,2.4-.28A.64.64,0,0,0,242,27a1.51,1.51,0,0,0,.22-.68q.12-1,.21-4.47c0-1.11.06-3,.06-5.74,0-2.43,0-4.59-.06-6.46a17.31,17.31,0,0,0-.23-3.35A.83.83,0,0,0,242,6a1.31,1.31,0,0,0-.59-.21,16.55,16.55,0,0,0-2.13-.23V4c2.46.07,4.16.11,5.09.11,1.24,0,2.48,0,3.72-.11l1.58,3.56,1.26,2.69L256.59,22c1.22-2.36,2.13-4.19,2.75-5.5l2.37-5c1.31-2.78,2.12-4.49,2.41-5.13s.63-1.45,1-2.43c1.56.08,2.57.13,3,.13L273.48,4V5.52h-.25a3.77,3.77,0,0,0-2.3.42,2.29,2.29,0,0,0-.48,1.7c0,1,0,1.74,0,2.26l-.09,5v6.31c0,1.53,0,2.43,0,2.69.09,1.52.18,2.45.25,2.8a.8.8,0,0,0,.2.4.86.86,0,0,0,.41.24,20.56,20.56,0,0,0,2.26.2v1.53L267.76,29l-5.61.11V27.58a8.51,8.51,0,0,0,2.54-.26,1.22,1.22,0,0,0,.45-.85,37.36,37.36,0,0,0,.14-4.45V9l-4.17,8.42-2,4.18q-.8,1.65-2.23,4.79c-.58,1.27-1,2.3-1.38,3.07h-1.22c-.43-1-1-2.38-1.87-4.12q-2.08-4.5-3.16-6.7L244.54,9v8.81q0,2.2.06,5.25c0,2,.09,3.18.14,3.45A1.23,1.23,0,0,0,245,27a1.13,1.13,0,0,0,.54.31,13.49,13.49,0,0,0,2.2.23v1.53C246.36,29,245,29,243.59,29,241.76,29,240.3,29,239.23,29.11Z"/><path class="cls-1" d="M275.66,14.71V13.35a20.78,20.78,0,0,0,3.1-.42,34.87,34.87,0,0,0,4-1.15l.25.2q-.25,3.56-.25,6.57v2a30.78,30.78,0,0,0,.12,3.43,2.72,2.72,0,0,0,.86,1.71,2.75,2.75,0,0,0,1.82.57,3.46,3.46,0,0,0,2.17-.67A4,4,0,0,0,289,24.21a5.6,5.6,0,0,0,.22-1.94V19.2l0-2.55a3.77,3.77,0,0,0-.16-1.49.6.6,0,0,0-.36-.25,15.42,15.42,0,0,0-2.19-.2V13.35c1.85-.24,3.12-.44,3.79-.58s1.8-.47,3.41-1l.34.2-.2,3.3c-.09,2.35-.14,3.66-.14,3.94V22.9a28.13,28.13,0,0,0,.16,4.05.67.67,0,0,0,.27.45,8,8,0,0,0,2.21.27v1.44l-3.7-.09-3.39.09-.13-.14.11-1.39c0-.22,0-.68,0-1.38q-.71.56-1.23,1l-2,1.93a7.53,7.53,0,0,1-2.5.44,5.3,5.3,0,0,1-3.81-1.32,4.7,4.7,0,0,1-1.38-3.54c0-.18,0-.85.06-2,0-.62,0-1.41,0-2.37l0-3.79a3.59,3.59,0,0,0-.14-1.3.82.82,0,0,0-.44-.37A9.25,9.25,0,0,0,275.66,14.71Z"/><path class="cls-1" d="M308.33,27.67v1.44c-1.49-.1-3.05-.14-4.68-.14s-3.46,0-5.5.14V27.69a14.19,14.19,0,0,0,2.07-.14.89.89,0,0,0,.4-.21.82.82,0,0,0,.19-.42,28,28,0,0,0,.18-3.39c0-1.91.05-3.6.05-5.07V12.54q0-2.82-.12-5.16a6.69,6.69,0,0,0-.18-1.49.52.52,0,0,0-.2-.19,1.68,1.68,0,0,0-.68-.22l-1.62-.09V4.06a34.08,34.08,0,0,0,3.56-.51c.88-.18,2.07-.51,3.57-1l.38.22-.15,3.62q-.09,3.06-.1,7.49v4.6c0,1.73,0,3,0,3.89.05,2.15.09,3.44.11,3.89a2.56,2.56,0,0,0,.13.85.42.42,0,0,0,.18.22,1.35,1.35,0,0,0,.55.2Q306.67,27.58,308.33,27.67Z"/><path class="cls-1" d="M320.58,27.67v1.44c-1.5-.1-3.06-.14-4.69-.14s-3.46,0-5.49.14V27.69a14,14,0,0,0,2.06-.14.93.93,0,0,0,.41-.21.82.82,0,0,0,.19-.42,28,28,0,0,0,.18-3.39c0-1.91.05-3.6.05-5.07V12.54c0-1.88,0-3.6-.13-5.16A5.6,5.6,0,0,0,313,5.89a.44.44,0,0,0-.19-.19,1.74,1.74,0,0,0-.69-.22c-.18,0-.71-.05-1.61-.09V4.06A33.83,33.83,0,0,0,314,3.55c.89-.18,2.08-.51,3.58-1l.37.22-.14,3.62q-.09,3.06-.11,7.49v4.6c0,1.73,0,3,0,3.89.05,2.15.08,3.44.11,3.89a2.66,2.66,0,0,0,.12.85.55.55,0,0,0,.18.22,1.41,1.41,0,0,0,.56.2Q318.92,27.58,320.58,27.67Z"/><path class="cls-1" d="M322.89,29.11V27.78a8.9,8.9,0,0,0,2.3-.31.87.87,0,0,0,.36-.64,40.48,40.48,0,0,0,.18-5.08,61.05,61.05,0,0,0-.16-6.39.76.76,0,0,0-.23-.47,6.77,6.77,0,0,0-2.45-.25V13.27a34.79,34.79,0,0,0,4.1-.61,20.18,20.18,0,0,0,3-1l.43.23c-.15,1.87-.22,3.62-.22,5.26v6.1a26.07,26.07,0,0,0,.14,3.7.59.59,0,0,0,.29.43,7.56,7.56,0,0,0,2.35.31v1.4c-1.7-.05-3.55-.07-5.54-.07C325.73,29,324.21,29.06,322.89,29.11Zm4.92-26a2.63,2.63,0,0,1,1.95.81,2.63,2.63,0,0,1,.8,1.94,2.63,2.63,0,0,1-.8,1.95,2.73,2.73,0,0,1-3.88,0,2.64,2.64,0,0,1-.81-1.95,2.63,2.63,0,0,1,.8-1.94A2.62,2.62,0,0,1,327.81,3.11Z"/><path class="cls-1" d="M355.61,27.73v1.38c-1.63-.08-3-.13-4-.13-1.18,0-2.21.05-3.09.13l-.32-.32c0-.26.1-1.29.24-3.11l.08-2.94V21.32a21.93,21.93,0,0,0-.24-4.13,2.82,2.82,0,0,0-1-1.59,3.17,3.17,0,0,0-2-.6,3.46,3.46,0,0,0-2.08.6,2.69,2.69,0,0,0-1,1.21,16.41,16.41,0,0,0-.11,2.87v3c0,.87,0,1.95.07,3.21a3.32,3.32,0,0,0,.15,1.12.66.66,0,0,0,.23.28,2.53,2.53,0,0,0,.85.27q.21,0,1.5.15v1.38c-1.3-.05-2.9-.07-4.79-.07-2.19,0-3.89,0-5.1.07V27.73a6.48,6.48,0,0,0,1.94-.2.69.69,0,0,0,.38-.31,3.19,3.19,0,0,0,.19-1.29l.08-1.6c0-.33,0-.88,0-1.63V20.35c0-1.07,0-2.36-.1-3.88a4.42,4.42,0,0,0-.16-1.3.58.58,0,0,0-.31-.23,10.38,10.38,0,0,0-2-.18V13.38c2.18-.37,3.61-.65,4.29-.82a14.28,14.28,0,0,0,2.32-.87l.48.22V14.8l3.27-2.62a6.54,6.54,0,0,1,1-.32,6.37,6.37,0,0,1,1.12-.08,7.51,7.51,0,0,1,2.88.43,4.81,4.81,0,0,1,2.56,2.85,9.61,9.61,0,0,1,.27,2.67c0,1.36,0,2.23,0,2.6,0,.14,0,.32,0,.52V22.7c0,2,.05,3.27.1,3.75a1.47,1.47,0,0,0,.33.93,2.11,2.11,0,0,0,1.06.26Z"/><path class="cls-1" d="M128.69,62.05h-1.44a8.29,8.29,0,0,0-.3-2.71.9.9,0,0,0-.65-.34,26.07,26.07,0,0,0-4.2-.24l-1.44,0v2c0,2.84,0,4.83.1,6a6.74,6.74,0,0,0,.28,2,.84.84,0,0,0,.45.31,20.17,20.17,0,0,0,2.82.3v1.41l-7-.12q-1.53,0-4.83.12V69.28a11.33,11.33,0,0,0,2.39-.16.52.52,0,0,0,.27-.19,2.26,2.26,0,0,0,.25-.94c0-.27.08-1.14.14-2.59s.09-2.5.09-3.14V54.83c0-.17,0-1.84-.16-5a8.52,8.52,0,0,0-.2-1.95.52.52,0,0,0-.17-.3,1.18,1.18,0,0,0-.5-.19,21.08,21.08,0,0,0-2.11-.2v-1.5l6.37.1,8.64-.14a31.05,31.05,0,0,1,3.43.18l.16.25c-.13.68-.24,1.55-.34,2.6s-.15,2-.16,2.77h-1.47c0-.29,0-.93-.09-1.94a4,4,0,0,0-.11-.95.32.32,0,0,0-.16-.18,4.73,4.73,0,0,0-1.5-.42,15.91,15.91,0,0,0-2.76-.21l-1.69.05-1.9.09q-.19,1.8-.2,6.49v2.51c1.54,0,2.57.07,3.11.07a12.13,12.13,0,0,0,3-.21.6.6,0,0,0,.34-.42,8.65,8.65,0,0,0,.19-2h1.57Q128.69,57.31,128.69,62.05Z"/><path class="cls-1" d="M133.27,62.3a10.93,10.93,0,0,1,1-5,6.77,6.77,0,0,1,3.12-3,10.92,10.92,0,0,1,4.85-1q4.16,0,6.31,2.18t2.17,6.37a12.55,12.55,0,0,1-.63,4.2,7.72,7.72,0,0,1-1.69,2.87,7.94,7.94,0,0,1-2.23,1.64,10.44,10.44,0,0,1-4.48.93,8.25,8.25,0,0,1-6.26-2.3Q133.26,66.79,133.27,62.3Zm5-.86q0,4.77,1.4,6.8a3,3,0,0,0,2.66,1.35,2.88,2.88,0,0,0,2.33-1q1.16-1.36,1.15-5.28a20.83,20.83,0,0,0-.46-4.72A5,5,0,0,0,144,55.84a3.37,3.37,0,0,0-4-.21,3.65,3.65,0,0,0-1.26,1.9A13,13,0,0,0,138.24,61.44Z"/><path class="cls-1" d="M153.13,56.37V55a22.14,22.14,0,0,0,3.1-.41,37,37,0,0,0,4-1.15l.25.2q-.26,3.56-.25,6.57v2a30.9,30.9,0,0,0,.12,3.43A2.47,2.47,0,0,0,163,67.94a3.47,3.47,0,0,0,2.17-.68,3.87,3.87,0,0,0,1.22-1.39,5.56,5.56,0,0,0,.22-1.94V60.86l0-2.55a3.81,3.81,0,0,0-.16-1.49.64.64,0,0,0-.36-.25,17.32,17.32,0,0,0-2.19-.2V55c1.85-.24,3.12-.43,3.79-.57s1.81-.48,3.41-1l.34.2-.2,3.3c-.09,2.35-.14,3.66-.14,3.93v3.68a28.31,28.31,0,0,0,.16,4.06.7.7,0,0,0,.27.45,8,8,0,0,0,2.21.27v1.43l-3.7-.09-3.39.09-.13-.14.11-1.38c0-.23,0-.69,0-1.38-.47.37-.88.71-1.22,1l-2,1.92a7.3,7.3,0,0,1-2.5.45,5.28,5.28,0,0,1-3.81-1.33,4.68,4.68,0,0,1-1.38-3.54c0-.18,0-.84.06-2,0-.61,0-1.4,0-2.37l0-3.79a3.56,3.56,0,0,0-.14-1.29.83.83,0,0,0-.44-.38A10,10,0,0,0,153.13,56.37Z"/><path class="cls-1" d="M196.34,69.39v1.38c-1.62-.08-3-.12-4-.12q-1.79,0-3.09.12l-.32-.32c0-.25.1-1.29.23-3.1l.09-2.95V63a22,22,0,0,0-.24-4.13,2.84,2.84,0,0,0-1-1.59,3.13,3.13,0,0,0-2-.6,3.44,3.44,0,0,0-2.08.6,2.71,2.71,0,0,0-1,1.22,15.21,15.21,0,0,0-.11,2.87v3c0,.88,0,2,.07,3.22a3.37,3.37,0,0,0,.14,1.11.64.64,0,0,0,.24.29,2.89,2.89,0,0,0,.84.27l1.51.14v1.38c-1.31,0-2.9-.07-4.79-.07-2.2,0-3.9,0-5.1.07V69.39a6,6,0,0,0,1.93-.2.68.68,0,0,0,.38-.3,3.22,3.22,0,0,0,.2-1.29l.07-1.6c0-.34,0-.88,0-1.64V62c0-1.06,0-2.36-.11-3.88a4.68,4.68,0,0,0-.15-1.3.59.59,0,0,0-.32-.22,8.78,8.78,0,0,0-2-.18V55.05c2.17-.37,3.6-.65,4.29-.83a15.06,15.06,0,0,0,2.31-.86l.49.21v2.89l3.27-2.62a6,6,0,0,1,1-.31,6.45,6.45,0,0,1,1.12-.08,7.34,7.34,0,0,1,2.89.43,4.54,4.54,0,0,1,1.62,1.21,4.66,4.66,0,0,1,.93,1.63,9.61,9.61,0,0,1,.27,2.67c0,1.37,0,2.23,0,2.6,0,.15,0,.32,0,.53l0,1.84c0,2,0,3.28.1,3.76a1.44,1.44,0,0,0,.32.92,2,2,0,0,0,1.07.26Z"/><path class="cls-1" d="M218.64,69.48v1.29l-3.77,0-3.23,0-.16-.14.09-1.42,0-1.47c-.83.69-1.73,1.47-2.72,2.33a9,9,0,0,1-1.13.92,5,5,0,0,1-1.81.27A6.37,6.37,0,0,1,201,69.08a8.66,8.66,0,0,1-2-6,11.55,11.55,0,0,1,.58-3.76,6.17,6.17,0,0,1,1-1.93,16.19,16.19,0,0,1,2.42-1.91,16.13,16.13,0,0,1,2.87-1.73,6.46,6.46,0,0,1,2.26-.33,7,7,0,0,1,1.42.12,16.92,16.92,0,0,1,2,.67c0-.7.06-1.43.06-2.21s0-2-.09-3.3a2.73,2.73,0,0,0-.2-1.17.58.58,0,0,0-.36-.23,20.42,20.42,0,0,0-2.21-.11V45.89a29,29,0,0,0,7.09-1.56l.47.27c-.14,3.2-.22,5.09-.23,5.65q-.06,4.7-.06,13.13v1.67q0,1.22.09,2.64a4.09,4.09,0,0,0,.18,1.23.76.76,0,0,0,.41.33A11.71,11.71,0,0,0,218.64,69.48ZM211.55,58a7.25,7.25,0,0,0-1.61-1.55,5.18,5.18,0,0,0-2.61-.68,3.23,3.23,0,0,0-2,.6,3.58,3.58,0,0,0-1.16,1.95,11.25,11.25,0,0,0-.39,3.11,8,8,0,0,0,1.4,5,3.37,3.37,0,0,0,2.8,1.31,3.78,3.78,0,0,0,2.33-.75,3,3,0,0,0,1.18-1.45,25.4,25.4,0,0,0,.19-4.28Z"/><path class="cls-1" d="M237.1,69.43v1.34q-2.07-.09-3.66-.09c-1,0-2,0-2.93.09l-.16-.19.16-2.36q-.64.42-3.8,2.84a7.17,7.17,0,0,1-1.55.18,4,4,0,0,1-3.06-1.15,4.55,4.55,0,0,1-1.1-3.3,5.08,5.08,0,0,1,.49-2.39A4.15,4.15,0,0,1,222.55,63a6.29,6.29,0,0,1,1.75-.86,38,38,0,0,1,6.21-1.58,4.86,4.86,0,0,0-.88-3.25,3.49,3.49,0,0,0-2.83-1.11,5.51,5.51,0,0,0-1.48.2,3,3,0,0,0-.72.36l-.75,1.81-1.22-.27.11-2.31c.88-.6,1.73-1.12,2.53-1.57a9.6,9.6,0,0,1,1.69-.8,6.48,6.48,0,0,1,1.86-.2,8.1,8.1,0,0,1,3.23.56,4.86,4.86,0,0,1,1.86,1.34,4.43,4.43,0,0,1,.83,1.65,9.26,9.26,0,0,1,.22,2.23q0,.57-.09,3c0,1.08-.05,2-.05,2.64a22.91,22.91,0,0,0,.18,3.88.6.6,0,0,0,.29.43A7.43,7.43,0,0,0,237.1,69.43Zm-6.59-7.33a22.28,22.28,0,0,0-2.79.78A3.71,3.71,0,0,0,226,64a2.87,2.87,0,0,0-.49,1.7,2.51,2.51,0,0,0,.59,1.78,2,2,0,0,0,1.53.63,3.3,3.3,0,0,0,1.63-.47,3.74,3.74,0,0,0,1.28-1.18Z"/><path class="cls-1" d="M238.77,57.11V56.3l1.62-1q.39-.26.75-.54V52.33c0-.86,0-1.92-.14-3.19,1.16-.38,1.91-.64,2.26-.77l2.28-1.06.47.36-.18,1.86-.13,2.07-.16,3.14h.59a26.77,26.77,0,0,0,3.61-.18l-.3,2.42a2,2,0,0,1-.4,0l-1.76,0h-1.74v6c0,1.85,0,2.94.05,3.27a1.91,1.91,0,0,0,.61,1.32,2.19,2.19,0,0,0,1.53.48,7,7,0,0,0,1,0c.24,0,.56-.09.94-.17l.29.73-.65.65-1.38,1.42a5.57,5.57,0,0,1-1.25.4,5.91,5.91,0,0,1-1.12.1,4.71,4.71,0,0,1-3.28-1.07,3.44,3.44,0,0,1-1.19-2.66l.07-5.93V57.06h-.48C240,57.06,239.37,57.07,238.77,57.11Z"/><path class="cls-1" d="M251.43,70.77V69.45a8.77,8.77,0,0,0,2.3-.32.83.83,0,0,0,.36-.64,40.37,40.37,0,0,0,.18-5.08A59.77,59.77,0,0,0,254.1,57a.69.69,0,0,0-.23-.47,7,7,0,0,0-2.44-.25V54.94a36.81,36.81,0,0,0,4.09-.61,21.53,21.53,0,0,0,3-1l.43.23c-.14,1.87-.22,3.62-.22,5.26v6.11a24,24,0,0,0,.15,3.7.58.58,0,0,0,.29.43,7.61,7.61,0,0,0,2.35.3v1.4c-1.7,0-3.55-.07-5.55-.07C254.27,70.7,252.75,70.73,251.43,70.77Zm4.92-26a2.65,2.65,0,0,1,1.95.8,2.76,2.76,0,0,1-1.95,4.71,2.64,2.64,0,0,1-1.94-.81,2.76,2.76,0,0,1,0-3.9A2.62,2.62,0,0,1,256.35,44.78Z"/><path class="cls-1" d="M264,62.3a10.93,10.93,0,0,1,1-5,6.79,6.79,0,0,1,3.13-3,10.85,10.85,0,0,1,4.84-1q4.15,0,6.31,2.18t2.17,6.37a12.55,12.55,0,0,1-.63,4.2,7.72,7.72,0,0,1-1.69,2.87,7.91,7.91,0,0,1-2.22,1.64,10.51,10.51,0,0,1-4.49.93,8.27,8.27,0,0,1-6.26-2.3Q264,66.79,264,62.3Zm5-.86q0,4.77,1.4,6.8A3.05,3.05,0,0,0,273,69.59a2.92,2.92,0,0,0,2.34-1q1.14-1.36,1.14-5.28a21.47,21.47,0,0,0-.45-4.72,5.11,5.11,0,0,0-1.35-2.73,3.14,3.14,0,0,0-2.15-.78,3.19,3.19,0,0,0-1.88.57,3.65,3.65,0,0,0-1.26,1.9A13,13,0,0,0,269,61.44Z"/><path class="cls-1" d="M304.59,69.39v1.38c-1.62-.08-2.95-.12-4-.12q-1.78,0-3.09.12l-.32-.32c0-.25.1-1.29.23-3.1l.09-2.95V63a22,22,0,0,0-.24-4.13,2.89,2.89,0,0,0-1-1.59,3.13,3.13,0,0,0-2-.6,3.44,3.44,0,0,0-2.08.6,2.71,2.71,0,0,0-1,1.22,15.21,15.21,0,0,0-.11,2.87v3c0,.88,0,2,.07,3.22a3.37,3.37,0,0,0,.14,1.11.64.64,0,0,0,.24.29,2.89,2.89,0,0,0,.84.27l1.51.14v1.38c-1.31,0-2.9-.07-4.8-.07-2.19,0-3.89,0-5.09.07V69.39a6,6,0,0,0,1.93-.2.68.68,0,0,0,.38-.3,3.22,3.22,0,0,0,.2-1.29l.07-1.6c0-.34,0-.88,0-1.64V62c0-1.06,0-2.36-.11-3.88a5.16,5.16,0,0,0-.15-1.3.59.59,0,0,0-.32-.22,8.78,8.78,0,0,0-2-.18V55.05c2.17-.37,3.6-.65,4.29-.83a15.06,15.06,0,0,0,2.31-.86l.49.21v2.89l3.27-2.62a6,6,0,0,1,1-.31,6.45,6.45,0,0,1,1.12-.08,7.37,7.37,0,0,1,2.89.43,4.54,4.54,0,0,1,1.62,1.21,4.82,4.82,0,0,1,.93,1.63,9.61,9.61,0,0,1,.27,2.67c0,1.37,0,2.23,0,2.6,0,.15,0,.32,0,.53l0,1.84c0,2,0,3.28.1,3.76a1.44,1.44,0,0,0,.32.92,2,2,0,0,0,1.07.26Z"/><rect class="cls-1" x="112.44" y="38.83" width="243.17" height="1"/><path class="cls-2" d="M78.06,38.41c-.11-.35-.19-.71-.33-1a9.79,9.79,0,0,0-.58-1.17c-.11-.19-.36-.47-.45-.44s-.55.29-.58.49a5.25,5.25,0,0,0,.63,3c0,.09.22.14.34.15C77.69,39.49,78,39.17,78.06,38.41Z"/><path class="cls-2" d="M0,42.37a1,1,0,0,0,.69-.58,5.08,5.08,0,0,1,.61-.85c.36-.47.74-.92,1.12-1.37a2.4,2.4,0,0,1,.63-.64,16.66,16.66,0,0,1,2.07-.79.93.93,0,0,1,.78.14,5.27,5.27,0,0,0,3,1.5.93.93,0,0,0,.66-.22c1.28-1.27,2.55-2.54,3.77-3.86a1,1,0,0,1,1-.4,4.8,4.8,0,0,0,1.31,0c1.21-.2,2.41-.47,3.61-.69,1-.18,2-.28,2.94-.49a5.67,5.67,0,0,1,3.55,0c.62.25.75.51.27,1a22.74,22.74,0,0,1-1.86,1.68c-.74.57-.81,1.47-1.19,2.22a.91.91,0,0,0,.21.72,2,2,0,0,0,2,.67,2,2,0,0,1,.67.14,2.22,2.22,0,0,1-.21.69c-.45.69-1,1.33-.59,2.23,0,.08,0,.2-.07.33a1.07,1.07,0,0,0-1.28.74A5.51,5.51,0,0,1,22.3,46.7a24.19,24.19,0,0,1-3,1.92,8.94,8.94,0,0,0-.84.51,1,1,0,0,0-.11,1.44c.61.49.41.94,0,1.33-.83.75-1.69,1.47-2.58,2.14a1.64,1.64,0,0,0-.68,2.17,2,2,0,0,0,2.5.89c1-.47,2-.93,3-1.36a31.26,31.26,0,0,0,3.79-1.81,38.76,38.76,0,0,0,4.56-3.8,3.31,3.31,0,0,1,1.47-.87,2.43,2.43,0,0,0,2-1.3c.18-.32.62-.49,1-.78.07.27.11.33.1.39-.34,1.72-.69,3.44-1,5.17-.16.86-.25,1.74-.39,2.6s-.42,1.77-.48,2.66a16.61,16.61,0,0,0,.28,5.4c.18.71,0,.84-.7.75a1.44,1.44,0,0,0-1.45.54c-.76.89-1.63,1.7-2.47,2.52-.52.51-.59,1,0,1.4,1.11.76,1.55,1.1,2.68.34a2.86,2.86,0,0,1,.36-.13,10.86,10.86,0,0,1-.55,2,1.86,1.86,0,0,0-.27,1h3.18a3.29,3.29,0,0,1,.57-2.21A5.23,5.23,0,0,0,33.66,68a3.08,3.08,0,0,1,.28-.54c.2.15.53.26.59.46a3.57,3.57,0,0,1,0,1,17,17,0,0,0,.16,2.16,1.79,1.79,0,0,0,.31.69h2.61a4.47,4.47,0,0,0-.22-1.56,2.19,2.19,0,0,1-.16-1.7,7,7,0,0,0,.25-3.78c0-.31-.25-.77-.47-.84a1.86,1.86,0,0,0-1.17.18,5.52,5.52,0,0,0-1,.93c-.23-1.23-.53-2.34-.64-3.47a19.81,19.81,0,0,1,.72-6.46c.31-1.29.19-2.71,1-3.87,0-.08,0-.22,0-.33.06-.76.08-1.53.18-2.3.15-1.08.17-1.07,1.29-1.32a.72.72,0,0,0,.31-.11,8.84,8.84,0,0,0,2.73-2.21.42.42,0,0,1,.17-.2c.21-.08.49-.24.64-.16s.22.39.22.6c0,.62-.08,1.23-.09,1.85,0,.93.08,1.86,0,2.78a46.34,46.34,0,0,0,.44,8,3.46,3.46,0,0,0,.19.7c.27.88.57,1.75.79,2.64.06.24-.06.72-.2.78a1.12,1.12,0,0,1-.86-.18,1.34,1.34,0,0,0-1.7,0c-.59.38-.53.92-.38,1.47a6.1,6.1,0,0,0,.44,1.24,1.65,1.65,0,0,0,.67.69c.47.2.46.42.3.82A2.58,2.58,0,0,0,40.89,67c0,.86.82,1.19,1.34,1.71a.94.94,0,0,0,1.21.13c.36-.18.72-.48.57-1a.77.77,0,0,1,.58-1c.24-.06.64.24.87.47a3.61,3.61,0,0,1,.88,2.28c.09.73.23,1.46.38,2.18H49.4c0-.3-.07-.6-.11-.9-.11-.88,0-1.07.89-.85a1.88,1.88,0,0,0,2-1.19c.37-.78.06-1.15-.79-1.09a1,1,0,0,1-.75-.21,1.22,1.22,0,0,1,.65-1.7c.26-.09.6-.22.69-.43.52-1.15-.05-1.9-1.31-1.88A3.5,3.5,0,0,1,49,63.17a3.55,3.55,0,0,1-1.6-2.1c-.17-.54-.48-.69-1-.47-.19.08-.36.26-.53.25s-.64-.1-.7-.26A11.43,11.43,0,0,1,44.41,58c-.21-2-.37-4.09-.4-6.13,0-2.67.07-5.35.09-8a4.58,4.58,0,0,0-.17-1.09,10.77,10.77,0,0,1-.53-2.49A19.28,19.28,0,0,1,44,36.85c0-.18.37-.36.59-.41.7-.16,1.42-.26,2.12-.36l3.82-.52a10.7,10.7,0,0,1,1.1-.22,3.59,3.59,0,0,1,1.54,0,21.51,21.51,0,0,1,2.37,1.35c.71.41,1.44.82,2.15,1.24,1.1.64,2.22,1.23,3.27,1.94s1.94,1.51,2.91,2.26c.65.5.61.69,0,1.26-1.18,1.16-1.29,1.09-.94,2.69a.83.83,0,0,0,.77.69,3.52,3.52,0,0,0,2.65-1.26c.35-.59.49-.63,1-.1s.87,1.1,1.32,1.64c.88,1.08,1.48,2.41,3,2.86.89.26,1.3.14,1.3-.76s.24-1.06,1.06-1c.17,0,.34,0,.49,0a9.09,9.09,0,0,1,.09-1.42,1.51,1.51,0,0,0-.43-1.38c-.7-.8-.64-1,.36-1.31.68-.19,1.26-1.28.86-1.68a.79.79,0,0,1,0-1.26.64.64,0,0,0,.18-.41,19.74,19.74,0,0,0,0-2.77c-.14-1.39-.42-2.77-.63-4.16a2.45,2.45,0,0,1,.06-.6c1.53,0,4,1.51,4.91,2.34a2,2,0,0,0,1.81.72,2.93,2.93,0,0,1,.66,0,1.1,1.1,0,0,0,1.35-1,4.71,4.71,0,0,0-2.49-4.66,16.48,16.48,0,0,0-4.35-1.44c-1.69-.14-3.36-.62-5-.93-.8-.15-1.6-.26-2.4-.38l-1-.17a4.61,4.61,0,0,1-.84-.07c-.61-.17-1.19-.45-1.8-.57-.86-.17-1.73-.24-2.6-.36-1.5-.22-3-.42-4.51-.65-1-.15-2-.37-3.06-.51-1.2-.16-2.4-.31-3.6-.4-1-.08-1.94-.07-2.91-.1.61-.28.61-.76.61-1.24,0-.28-.13-.61,0-.85a1.43,1.43,0,0,0-.26-1.71l.43-.31a14.65,14.65,0,0,0,2.64-1.81,1.51,1.51,0,0,1,2.08-.49,16.23,16.23,0,0,0,3.81.64,4,4,0,0,1,.77.15A12.63,12.63,0,0,0,64,20.2a5,5,0,0,0,1.66-.4.92.92,0,0,0,.44-1.33,1.62,1.62,0,0,1-.21-.68,1.62,1.62,0,0,0-.62-1.39,15.32,15.32,0,0,0-1.39-1.14c-.38-.28-.89-.41-1.19-.75a1.86,1.86,0,0,0-1.54-.71,2.43,2.43,0,0,1-2.32-2c-.54-3.18-2.34-4.64-5.46-5.25a8,8,0,0,0-3.8.1,13.93,13.93,0,0,0-2.81,1.11,6.51,6.51,0,0,0-1.57,1.49c-1,1.21-2.09,2.43-1.61,4.23a.58.58,0,0,1,0,.26,2.28,2.28,0,0,1-2.37,1.43,1.06,1.06,0,0,0-.76.19,1.92,1.92,0,0,0,0,2,.85.85,0,0,1,0,.73q-1.83,2.54-3.74,5a.86.86,0,0,1-.63.25c-.28,0-.55-.15-.83-.16a.73.73,0,0,0-.87.76c-.05.93-.21,1-1.17.84A18,18,0,0,0,31,24.39a21.06,21.06,0,0,0-6.53.22,1.26,1.26,0,0,1-.68-.12c-.32-.13-.6-.36-.91-.5-.94-.42-1.51,0-1.42,1,0,.54-.3.79-.81.62a2.69,2.69,0,0,0-1-.19c-1.34.08-2.68.3-4,.28A4.82,4.82,0,0,1,13,25.08a6,6,0,0,0-2-.89c-.14-.05-.28-.12-.43-.16a47.36,47.36,0,0,0-5-1.42,26.25,26.25,0,0,0-4.94-.33c-.21,0-.42,0-.63,0Zm73.17-5c.5-.16.56.38.57.68a13.14,13.14,0,0,1-.09,2.17c0,.25-.33.46-.5.69l-.21-.08a23.79,23.79,0,0,1-.43-2.64A1.12,1.12,0,0,1,73.17,37.32ZM60.31,34.65a.27.27,0,0,1,.23.09c.59.82,1.17,1.64,1.79,2.52-.56.14-4.09-1.91-4.39-2.48C58.76,34.73,59.54,34.68,60.31,34.65Zm-3.78-2.89c.33.37.76.75.4,1.55l-1.75-1.78A1,1,0,0,1,56.53,31.76ZM51,17.92l.11.34L50,18.53,50,18.34ZM39.45,38.79a6.88,6.88,0,0,1,.67-.75,4.26,4.26,0,0,1-.95,3.52,3.67,3.67,0,0,1-.81.94,1.84,1.84,0,0,1-1,.27c-.21,0-.61-.25-.6-.36a1.51,1.51,0,0,1,.36-.85c.46-.49,1-.88,1.48-1.39A14.6,14.6,0,0,0,39.45,38.79Zm-3.33-5.15c.06-.52.12-1,.17-1.51a8.39,8.39,0,0,1,1,.75c.16.15.31.51.23.65a1.29,1.29,0,0,1-.69.59c-.19.06-.47-.13-.7-.24C36.1,33.87,36.11,33.73,36.12,33.64Zm-.64-3.08c.2.22.18.64.26,1-.22,0-.52.07-.63,0a8,8,0,0,1-.73-1.13C34.88,30.44,35.32,30.38,35.48,30.56ZM33.68,33s.3.06.46.1a5.88,5.88,0,0,1,.7.16c.27.1.54.23.81.35l-.11.27-1.66-.22-.16.23c.27.42.53.85.83,1.25a3.6,3.6,0,0,1,1,2.35c-1-.37-1.22-.63-1.25-1.63,0-.12,0-.31-.1-.36-.72-.47-.55-1.25-.68-1.92A1,1,0,0,1,33.68,33Zm-5.29-2.66,0,.15-1.81.26,0-.15Z"/></g></g></svg>