<svg xmlns="http://www.w3.org/2000/svg" viewBox="0 0 35.32 93.88"><defs><style>.cls-1{fill:#fff;stroke:#000;}</style></defs><title>red</title><g id="Layer_2" data-name="Layer 2"><g id="Layer_1-2" data-name="Layer 1"><path class="cls-1" d="M.5,93.38V77c0-6.81,3.5-12,9.89-12a8.21,8.21,0,0,1,8.3,6h.15c1-3,2.88-4.52,6.29-5,4.51-.72,8.83-.24,9.26-1.44h.43v8.26c-.53.91-4.56.77-8,1.3C23.69,74.47,22,76.1,22,79.75v5.14H34.82v8.49ZM15.67,78.5c0-3.36-1.59-5.09-4.18-5.09S7.22,75,7.22,78.31v6.58h8.45ZM.5,61.17v-26h7V52.68h6.14v-15h6.63v15h7.34V34.87h7.2v26.3ZM.5,31V16.39C.5,6.88,7.36.5,17.88.5c6.05,0,10.89,2.11,13.82,6a17,17,0,0,1,3.12,10.47V31ZM27.67,17.54c0-5.57-3.5-8.45-9.79-8.45S7.6,12.12,7.6,17.45v5.08H27.67Z"/></g></g></svg>