<svg xmlns="http://www.w3.org/2000/svg" viewBox="0 0 334.37 334.37"><defs><style>.cls-1{fill:none;stroke:#fff;stroke-linejoin:bevel;stroke-width:6px;}.cls-2{fill:#fff;}</style></defs><title>culture</title><g id="Layer_2" data-name="Layer 2"><g id="Layer_1-2" data-name="Layer 1"><polyline class="cls-1" points="135.19 249.25 135.27 85.37 135.24 122.59 166.15 174.36 197.41 124.8 197.89 85.12 199.18 249.22"/><path class="cls-1" d="M167.18,79.72c49.48,0,87.47,37.9,87.47,87.46s-38,87.47-87.47,87.47-87.46-37.9-87.46-87.47S117.7,79.72,167.18,79.72Z"/><path class="cls-1" d="M167.18,3c92.89,0,164.19,71.15,164.19,164.18s-71.3,164.19-164.19,164.19S3,260.22,3,167.18,74.3,3,167.18,3Z"/><path class="cls-1" d="M223.28,173.67c-3,29.65-26.32,51.54-56.1,51.54-31.91,0-56.42-25.14-56.42-58s24.51-58,56.42-58c29.36,0,52.44,21.28,56,50.28"/><path class="cls-2" d="M268.51,273.67A15.51,15.51,0,0,1,257,278.23l.06-4.19a11.81,11.81,0,0,0,8.46-3.38c4.53-4.46,4.49-11.53-.21-16.32a11.32,11.32,0,0,0-16.6-.2,11.64,11.64,0,0,0-3.29,9.4l-4.24.18a15.66,15.66,0,0,1,4.57-12.6c6.62-6.51,16.27-6.46,22.73.1A15.62,15.62,0,0,1,268.51,273.67Z"/><path class="cls-2" d="M229.88,268.9c2.77,1,5.18,3.05,7.07,6.78l8.25,16.25-4,2-8.34-16.45c-1.33-2.62-2.79-3.92-4.52-4.59a9,9,0,0,0-11.58,5.87c-.49,1.79-.3,3.74,1,6.36l8.34,16.45-4,2L214,287.34c-1.89-3.73-2.09-6.87-1.29-9.72a13.41,13.41,0,0,1,17.21-8.72Z"/><path class="cls-2" d="M194.06,283.69l-13.52,2.67-.82-4.14,17.89-3.53,6,30.53-4.36.86Z"/><path class="cls-2" d="M176.51,313.58l-21.34-.36.07-4.22,8.45.14.45-26.89,4.45.07-.46,26.89,8.45.15Z"/><path class="cls-2" d="M144,283.79a13,13,0,0,1,.44,9.79L139.16,311l-4.26-1.28,5.32-17.66c.85-2.81.69-4.76-.1-6.44a9,9,0,0,0-12.43-3.75c-1.59,1-2.8,2.5-3.64,5.31l-5.33,17.67-4.25-1.29,5.26-17.45a12.93,12.93,0,0,1,5.77-7.92A13.43,13.43,0,0,1,144,283.79Z"/><path class="cls-2" d="M102,278.58l8.15-12.21,3.69,2.47L96.59,294.73l-9.06-6.05a9,9,0,0,1-4-4.87,8.22,8.22,0,0,1,7.11-10.65,7.45,7.45,0,0,1,3.95.66l-1-18.55,4.48,3,1.07,18.34Zm-7.52.06c-1.66-1.11-2.76-1.31-3.75-1.12a4.09,4.09,0,0,0-2.54,1.73,4.05,4.05,0,0,0-.61,3c.19,1,.8,1.92,2.46,3l5.18,3.46,4.44-6.66Z"/><path class="cls-2" d="M64.59,251.2l3.17-2.78,6.75,7.68,7.85-6.89-9.09-10.36,3.17-2.78,12,13.7L65.07,270.3,53.34,256.93l3.18-2.79,8.8,10,6-5.28Z"/><path class="cls-2" d="M59.91,117.73l-1.29,2.83-16.77,2.35,19,8.71-1.85,4-28.3-12.94L32,119.89l22.26-3L42,98.05l1.29-2.83,28.31,13-1.85,4-19-8.71Z"/><path class="cls-2" d="M54.94,79.64l2.81-3.44L81.88,95.85,79.07,99.3Z"/><path class="cls-2" d="M79,66,92.85,84.18l-3.54,2.69L70.45,62.12l2.47-1.88,28.7,6.85L87.77,48.92l3.54-2.7L110.17,71l-2.47,1.89Z"/><path class="cls-2" d="M108.25,37.72l4.07-1.8,12.54,28.49-4.07,1.79Z"/><path class="cls-2" d="M134.68,52.5a9.94,9.94,0,0,0,8.3,2.25c2.82-.63,4.88-3,4.27-5.74-1-4.64-7.57-3.73-12.2-5.47a8,8,0,0,1-5.36-5.82c-1-4.43,2.11-8.95,7.4-10.13a12.82,12.82,0,0,1,8.83,1.21l-1.85,3.74a8.59,8.59,0,0,0-5.89-.87c-2.51.57-4.71,2.56-4.12,5.21.87,3.86,7.51,3.24,12,5a8.21,8.21,0,0,1,5.5,6.06c1.19,5.33-2.15,9.73-7.45,10.91a14,14,0,0,1-11.76-2.7Z"/><path class="cls-2" d="M158.91,24.55l21.34.19,0,4.23-8.45-.08-.24,26.9-4.45,0,.25-26.9-8.45-.08Z"/><path class="cls-2" d="M196.17,44l-3.82,14.17L188.06,57,196.15,27l10.52,2.83A8.92,8.92,0,0,1,212,33.12a8.22,8.22,0,0,1-3.32,12.37,7.46,7.46,0,0,1-4,.64l6.92,17.24-5.2-1.4-6.88-17Zm7.11-2.46c1.93.52,3,.36,3.9-.15a4.06,4.06,0,0,0,1.48-5.49c-.5-.87-1.37-1.57-3.3-2.09l-6-1.61-2.08,7.72Z"/><path class="cls-2" d="M233.8,59.56,226.71,71.9l-3.86-2.22L230,57.35l-.83-20,4.32,2.48.63,14.78,13.09-6.89,4.31,2.49Z"/><path class="cls-2" d="M286.15,84.76c5.13,7.16,3.43,16.69-3.95,22s-16.95,3.82-22.07-3.34-3.42-16.69,3.95-22S281,77.6,286.15,84.76Zm-22.59,16.17c3.7,5.17,10.56,6.12,16.05,2.18s6.81-10.72,3.11-15.89S272.13,81.13,266.67,85,259.86,95.76,263.56,100.93Z"/><path class="cls-2" d="M295.39,131.68l-4,1.41L288,123.46l-13.82,4.92-1.5-4.19L302,113.75l6,16.76-4,1.41-4.47-12.57L292,122Z"/><circle class="cls-1" cx="293.28" cy="177.3" r="8.22"/><circle class="cls-1" cx="43.43" cy="177.3" r="8.22"/></g></g></svg>