<svg xmlns="http://www.w3.org/2000/svg" viewBox="0 0 36.81 163.35"><defs><style>.cls-1{fill:#fff;stroke:#000;}</style></defs><title>scout</title><g id="Layer_2" data-name="Layer 2"><g id="Layer_1-2" data-name="Layer 1"><path class="cls-1" d="M24.69,162.84v-8.55c3.46-.38,4.9-2.64,4.9-6.72,0-2.78-1-5.52-3.6-5.52s-3.31,2.79-4.46,7.49c-1.4,6-3.22,12.24-10.42,12.24-7.35,0-10.56-5.95-10.56-13.63,0-7.44,3.36-13.2,10.56-13.54v8.31c-2.64.33-4.13,2.35-4.13,5.52,0,3,1.3,4.94,3.22,4.94,2.4,0,3-2.64,4.13-7.78,1.48-6.38,3.45-12.14,10.8-12.14s11.18,6.14,11.18,14.06C36.31,156.65,32.28,162.65,24.69,162.84ZM18.45,131.4C8.23,131.4.5,124.73.5,114.5a16,16,0,0,1,3-9.79A13.46,13.46,0,0,1,13,99.57v8.5a6.2,6.2,0,0,0-5.42,6.48c0,5.57,4.65,8.21,10.89,8.21s10.85-3.17,10.85-8.26a6.31,6.31,0,0,0-5.71-6.67v-8.5a13.56,13.56,0,0,1,8.79,4.13c2.54,2.64,3.88,6.14,3.88,11C36.26,124.53,28.73,131.4,18.45,131.4Zm0-33.7C8.13,97.7.5,91.12.5,80.76s7.63-17,17.91-17,17.9,6.58,17.9,17S28.68,97.7,18.41,97.7Zm0-25.3c-6.24,0-11,2.74-11,8.31s4.81,8.35,11.05,8.35,11-2.83,11-8.35S24.65,72.4,18.41,72.4Zm5-11.71H1.17V52.2H23.69c3.36,0,5.61-1.73,5.61-5.91,0-3.93-2.4-5.81-5.76-5.81H1.17V32H23.4c7.92,0,12.72,4.75,12.72,14.3S31.41,60.69,23.4,60.69Zm-15-41.61v10H1.17V.5h7.2V10.58H35.5v8.5Z"/></g></g></svg>