<svg xmlns="http://www.w3.org/2000/svg" viewBox="0 0 36.81 144.93"><defs><style>.cls-1{fill:#fff;stroke:#000;}</style></defs><title>show</title><g id="Layer_2" data-name="Layer 2"><g id="Layer_1-2" data-name="Layer 1"><path class="cls-1" d="M12.12.51V9.06c-3.46.38-4.9,2.64-4.9,6.72,0,2.78,1,5.52,3.6,5.52,2.74,0,3.31-2.79,4.47-7.49C16.68,7.86,18.5,1.57,25.7,1.57S36.26,7.52,36.26,15.2c0,7.44-3.36,13.2-10.56,13.54V20.43c2.64-.33,4.13-2.35,4.13-5.52,0-3-1.29-4.94-3.21-4.94-2.41,0-3,2.64-4.13,7.78C21,24.13,19,29.89,11.69,29.89S.5,23.75.5,15.83C.5,6.71,4.53.71,12.12.51ZM35.64,33.34v8.5h-13v12h13v8.5H1.32v-8.5h14.3v-12H1.32v-8.5ZM18.41,65.7c10.27,0,17.9,6.57,17.9,16.94s-7.63,17-17.9,17S.5,93.06.5,82.64,8.13,65.7,18.41,65.7Zm0,25.29c6.24,0,11-2.73,11-8.3s-4.8-8.35-11-8.35-11,2.83-11,8.35S12.17,91,18.41,91Zm17.23,8.16v8.6l-14.4,3.45c-3.31.77-8.5,1.59-8.5,1.59v.09s4.71.91,8.16,1.68l14.74,3.22v7.87L21,128.87c-3.51.76-8.26,1.63-8.26,1.63v.09s5.19,1,8.59,1.73l14.31,3.41v8.55L1.32,134.87v-8.31L17.78,123c2.74-.62,6.39-1.2,6.39-1.2v-.09s-3.65-.58-6.39-1.16l-16.46-3.6v-8.35Z"/></g></g></svg>